<svg width="64" height="64" viewBox="0 0 64 64" fill="none" xmlns="http://www.w3.org/2000/svg">
  <defs>
    <linearGradient id="bee-favicon-bg" x1="10" y1="8" x2="55" y2="57" gradientUnits="userSpaceOnUse">
      <stop stop-color="#FFD24E"/>
      <stop offset="1" stop-color="#D88C00"/>
    </linearGradient>
  </defs>
  <rect x="0" y="0" width="64" height="64" rx="16" fill="url(#bee-favicon-bg)"/>
  <path d="M12 23.5C12 19.9101 14.9101 17 18.5 17H30C35.2467 17 39.5 21.2533 39.5 26.5V50H21C16.0294 50 12 45.9706 12 41V23.5Z" fill="white"/>
  <path d="M52 23.5C52 19.9101 49.0899 17 45.5 17H34C28.7533 17 24.5 21.2533 24.5 26.5V50H43C47.9706 50 52 45.9706 52 41V23.5Z" fill="#1F2328"/>
  <path d="M32 26V50.5" stroke="#E2A10A" stroke-width="2.75" stroke-linecap="round"/>
  <path d="M19 30H27.5" stroke="#E2A10A" stroke-width="2.5" stroke-linecap="round"/>
  <path d="M19 35.5H27.5" stroke="#E2A10A" stroke-width="2.5" stroke-linecap="round"/>
  <path d="M36.5 30H45" stroke="white" stroke-width="2.5" stroke-linecap="round"/>
  <path d="M36.5 35.5H45" stroke="white" stroke-width="2.5" stroke-linecap="round"/>
</svg>
