<svg width="256" height="256" viewBox="0 0 256 256" fill="none" xmlns="http://www.w3.org/2000/svg">
  <defs>
    <linearGradient id="bg-book" x1="48" y1="30" x2="212" y2="222" gradientUnits="userSpaceOnUse">
      <stop stop-color="#FFCD47"/>
      <stop offset="1" stop-color="#D88C00"/>
    </linearGradient>
  </defs>
  <path d="M96 22.2872C115.797 10.8563 140.203 10.8563 160 22.2872L191.138 40.2628C210.935 51.6938 223.138 72.8125 223.138 95.6744V131.626C223.138 154.488 210.935 175.606 191.138 187.037L160 205.013C140.203 216.444 115.797 216.444 96 205.013L64.8616 187.037C45.0647 175.606 32.8616 154.488 32.8616 131.626V95.6744C32.8616 72.8125 45.0647 51.6938 64.8616 40.2628L96 22.2872Z" fill="url(#bg-book)"/>
  <path d="M77 80C77 71.1634 84.1634 64 93 64H126C136.493 64 145 72.5066 145 83V175H96C85.5066 175 77 166.493 77 156V80Z" fill="white"/>
  <path d="M179 80C179 71.1634 171.837 64 163 64H130C119.507 64 111 72.5066 111 83V175H160C170.493 175 179 166.493 179 156V80Z" fill="#1F2328"/>
  <path d="M128 82V177" stroke="#E3A10B" stroke-width="8" stroke-linecap="round"/>
  <path d="M92 96H120" stroke="#E3A10B" stroke-width="7" stroke-linecap="round"/>
  <path d="M92 114H120" stroke="#E3A10B" stroke-width="7" stroke-linecap="round"/>
  <path d="M137 96H163" stroke="white" stroke-width="7" stroke-linecap="round"/>
  <path d="M137 114H163" stroke="white" stroke-width="7" stroke-linecap="round"/>
</svg>
