<svg width="256" height="256" viewBox="0 0 256 256" fill="none" xmlns="http://www.w3.org/2000/svg">
  <defs>
    <linearGradient id="bg-bookmark" x1="48" y1="36" x2="208" y2="220" gradientUnits="userSpaceOnUse">
      <stop stop-color="#FFC83D"/>
      <stop offset="1" stop-color="#E59B00"/>
    </linearGradient>
  </defs>
  <path d="M96 22.2872C115.797 10.8563 140.203 10.8563 160 22.2872L191.138 40.2628C210.935 51.6938 223.138 72.8125 223.138 95.6744V131.626C223.138 154.488 210.935 175.606 191.138 187.037L160 205.013C140.203 216.444 115.797 216.444 96 205.013L64.8616 187.037C45.0647 175.606 32.8616 154.488 32.8616 131.626V95.6744C32.8616 72.8125 45.0647 51.6938 64.8616 40.2628L96 22.2872Z" fill="url(#bg-bookmark)"/>
  <path d="M128 54L164 72V124C164 131.18 158.18 137 151 137H105C97.8203 137 92 131.18 92 124V72L128 54Z" fill="#1F2328"/>
  <path d="M109 84H147V166L128 152L109 166V84Z" fill="white"/>
  <path d="M116 101H140" stroke="#E59B00" stroke-width="8" stroke-linecap="round"/>
  <path d="M116 118H136" stroke="#E59B00" stroke-width="8" stroke-linecap="round"/>
</svg>
