<svg width="256" height="256" viewBox="0 0 256 256" fill="none" xmlns="http://www.w3.org/2000/svg">
  <defs>
    <linearGradient id="bg-route" x1="42" y1="42" x2="208" y2="214" gradientUnits="userSpaceOnUse">
      <stop stop-color="#FFD75C"/>
      <stop offset="1" stop-color="#E29A00"/>
    </linearGradient>
  </defs>
  <path d="M96 22.2872C115.797 10.8563 140.203 10.8563 160 22.2872L191.138 40.2628C210.935 51.6938 223.138 72.8125 223.138 95.6744V131.626C223.138 154.488 210.935 175.606 191.138 187.037L160 205.013C140.203 216.444 115.797 216.444 96 205.013L64.8616 187.037C45.0647 175.606 32.8616 154.488 32.8616 131.626V95.6744C32.8616 72.8125 45.0647 51.6938 64.8616 40.2628L96 22.2872Z" fill="url(#bg-route)"/>
  <circle cx="90" cy="160" r="17" fill="#1F2328"/>
  <circle cx="165" cy="89" r="17" fill="#1F2328"/>
  <path d="M91 160C116 156 118 122 142 117C149 115 157 116 165 123" stroke="white" stroke-width="12" stroke-linecap="round" stroke-linejoin="round" stroke-dasharray="10 14"/>
  <path d="M152 125L175 126L168 104" stroke="white" stroke-width="10" stroke-linecap="round" stroke-linejoin="round"/>
  <path d="M88 157L93 163" stroke="#FFD75C" stroke-width="6" stroke-linecap="round"/>
  <path d="M162 86L168 92" stroke="#FFD75C" stroke-width="6" stroke-linecap="round"/>
</svg>
